<svg xmlns="http://www.w3.org/2000/svg" viewBox="0 0 161 161" width="161" height="161" role="img">
  <path d="M137.53 123.34C137.36 120.62 134.27 118.27 131.60 116.53C130.54 115.83 129.18 115.86 128.14 116.60C127.11 117.32 126.62 118.59 126.90 119.82C127.46 122.37 128.84 126.80 131.71 127.79C132.04 127.90 132.44 127.99 132.89 127.99C133.73 127.99 134.77 127.69 135.91 126.73C137.34 125.52 137.58 124.22 137.53 123.34M134.13 124.55C133.21 125.32 132.76 125.16 132.61 125.11C131.53 124.74 130.32 122.36 129.62 119.20C129.61 119.15 129.58 119.02 129.74 118.91C129.78 118.88 129.85 118.85 129.92 118.85C129.97 118.85 130.03 118.87 130.09 118.91C134.05 121.49 134.70 122.90 134.74 123.51C134.75 123.65 134.77 124.01 134.13 124.55" fill="#ff9900"/>
  <path d="M93.27 98.62C97.18 94.10 100.37 88.95 101.56 86.95C102.03 86.14 101.80 85.06 100.98 84.26C100.25 83.53 99.30 83.37 98.57 83.84C96.55 85.15 94.34 86.27 92.21 87.35C90.62 88.16 88.98 88.99 87.40 89.91C87.12 90.07 86.77 90.27 86.37 90.49C81.65 93.10 76.58 96.22 76.07 100.14C75.93 101.25 76.12 102.92 77.84 104.58C78.98 105.67 80.35 106.23 81.86 106.23C82.15 106.23 82.44 106.21 82.73 106.17C85.73 105.76 89.27 103.22 93.27 98.62M82.36 103.37C81.33 103.51 80.51 103.24 79.77 102.53C78.82 101.62 78.79 100.94 78.85 100.50C79.21 97.68 85.17 94.38 87.71 92.97C88.13 92.74 88.49 92.54 88.79 92.36C90.30 91.49 91.91 90.67 93.46 89.88C94.93 89.13 96.44 88.37 97.91 87.53C93.03 95.29 86.65 102.78 82.36 103.37" fill="#ff9900"/>
  <path d="M108.52 96.49C108.85 95.03 109.35 92.83 107.59 92.21L107.24 92.14C106.26 92.06 105.43 92.75 104.52 93.60L103.97 94.13C100.12 97.89 96.13 101.77 92.45 105.92L92.40 105.98C92.03 106.43 91.54 106.96 91.02 107.51C88.96 109.71 86.14 112.72 87.00 116.20C87.45 118.14 88.90 119.63 90.60 119.92C90.83 119.96 91.06 119.98 91.30 119.98C97.89 119.98 106.35 105.18 108.42 96.90L108.52 96.49M91.06 117.13C90.48 117.03 89.91 116.35 89.71 115.54C89.22 113.54 91.34 111.28 93.05 109.46C93.60 108.87 94.12 108.32 94.55 107.78C98.08 103.81 101.77 100.20 105.67 96.41C103.07 106.53 94.53 117.72 91.06 117.13" fill="#ff9900"/>
  <path d="M115.11 102.82L115.05 102.64C114.68 101.69 113.96 101.52 113.67 101.50C112.65 101.39 112.12 102.24 111.73 102.85C111.62 103.02 111.50 103.21 111.34 103.44L110.94 104.03C110.47 104.72 109.96 105.45 109.44 106.20C107.37 109.18 105.02 112.56 103.27 115.60C102.09 117.64 101.26 119.45 101.04 121.64C100.93 122.81 100.72 125.25 102.13 127.01C102.79 127.76 103.67 128.18 104.68 128.22C104.74 128.22 104.79 128.22 104.84 128.22C106.41 128.22 107.88 127.33 108.76 126.49C112.05 123.35 113.19 117.79 114.10 113.33C114.22 112.78 114.33 112.25 114.43 111.76C115.11 108.77 115.78 105.36 115.11 102.82M111.70 111.14C111.59 111.66 111.48 112.20 111.37 112.75C110.53 116.83 109.49 121.90 106.84 124.44C106.24 125.01 105.38 125.41 104.79 125.39C104.54 125.38 104.37 125.30 104.26 125.18C103.68 124.46 103.71 123.11 103.82 121.91C103.99 120.24 104.66 118.80 105.68 117.03C107.37 114.09 109.69 110.76 111.72 107.83C111.99 107.44 112.25 107.06 112.51 106.69C112.34 108.32 111.96 110.01 111.70 111.14" fill="#ff9900"/>
  <path d="M123.55 122.64C123.40 120.60 123.21 118.55 123.02 116.58L122.94 115.76C122.94 115.71 122.93 115.66 122.92 115.60C122.90 115.48 122.88 115.32 122.86 115.14C122.62 113.22 122.34 111.71 121.15 111.18L120.97 111.11L120.65 111.06L120.54 111.07C119.30 111.10 118.78 112.33 118.50 112.98L118.41 113.21C117.00 117.05 116.10 120.27 115.40 123.97C114.99 126.18 115.44 128.39 116.62 129.86C117.47 130.92 118.62 131.51 119.91 131.54C120.96 131.52 122.00 130.86 122.66 129.79C123.76 127.83 123.67 125.52 123.58 123.48C123.57 123.21 123.56 122.96 123.55 122.64M120.25 128.34C120.11 128.58 119.91 128.70 119.92 128.71C119.50 128.70 119.12 128.49 118.79 128.08C118.13 127.26 117.89 125.88 118.15 124.50C118.67 121.73 119.31 119.25 120.21 116.53L120.24 116.85C120.43 118.81 120.62 120.84 120.76 122.79C120.77 123.05 120.78 123.32 120.79 123.59C120.86 125.34 120.94 127.13 120.25 128.34" fill="#ff9900"/>
  <path d="M34.56 44.38C36.08 44.31 37.52 44.24 38.95 44.21C39.16 44.21 39.38 44.21 39.61 44.22C39.29 43.86 38.99 43.50 38.71 43.14L38.35 42.69C37.90 42.12 37.44 41.52 36.96 40.89L33.77 36.72C33.42 36.27 33.07 35.81 32.72 35.35C30.71 38.04 29.19 41.21 28.31 44.66L32.19 44.49C32.99 44.46 33.78 44.42 34.56 44.38" fill="#ff9900"/>
  <path d="M60.20 66.11C59.08 65.07 58.01 64.09 56.98 63.08C56.83 62.93 56.67 62.77 56.51 62.60C56.49 63.08 56.44 63.55 56.40 64.01L56.34 64.59C56.26 65.31 56.16 66.05 56.06 66.84L55.44 71.83C55.40 72.11 55.37 72.39 55.33 72.68C58.07 72.32 60.75 71.61 63.24 70.51C63.63 70.34 64.01 70.16 64.38 69.97L61.95 67.72C61.36 67.17 60.78 66.64 60.20 66.11" fill="#ff9900"/>
  <path d="M69.08 55.35C67.56 55.42 66.12 55.49 64.69 55.52C64.61 55.52 64.53 55.52 64.45 55.52C64.31 55.52 64.17 55.52 64.03 55.51C64.35 55.87 64.65 56.24 64.93 56.59L65.30 57.04C65.75 57.62 66.20 58.21 66.68 58.84L69.87 63.01C70.30 63.58 70.74 64.15 71.18 64.71C73.16 62.38 74.52 59.63 75.17 56.59C75.28 56.08 75.38 55.57 75.46 55.06L71.45 55.24C70.65 55.27 69.86 55.31 69.08 55.35" fill="#ff9900"/>
  <path d="M57.24 32.38C57.31 33.92 57.38 35.38 57.40 36.84C57.40 37.04 57.40 37.27 57.40 37.51C57.75 37.18 58.11 36.88 58.46 36.59L58.91 36.22C59.48 35.77 60.07 35.31 60.69 34.82L64.64 31.72C64.71 31.66 64.78 31.61 64.85 31.56C62.41 30.13 59.75 29.09 57.06 28.37L57.13 29.99C57.16 30.80 57.20 31.59 57.24 32.38" fill="#ff9900"/>
  <path d="M69.46 39.61C68.91 40.21 68.38 40.80 67.86 41.38C66.83 42.52 65.87 43.60 64.87 44.65C64.72 44.79 64.57 44.96 64.40 45.12C64.87 45.14 65.34 45.19 65.79 45.23L66.36 45.29C67.07 45.38 67.80 45.47 68.57 45.57L73.53 46.21C74.21 46.29 74.90 46.38 75.58 46.47C75.02 43.06 73.67 39.99 71.55 37.30L69.46 39.61" fill="#ff9900"/>
  <path d="M37.28 54.44C36.59 54.36 35.88 54.27 35.14 54.17L29.61 53.46C28.92 53.37 28.23 53.28 27.55 53.20C27.85 57.05 29.07 60.57 31.10 63.53L34.19 60.12C34.73 59.52 35.26 58.93 35.78 58.35C36.81 57.21 37.78 56.13 38.77 55.09C38.92 54.94 39.08 54.77 39.25 54.61C38.77 54.59 38.30 54.55 37.85 54.50L37.28 54.44" fill="#ff9900"/>
  <path d="M43.44 33.62C44.57 34.66 45.63 35.65 46.67 36.66C46.81 36.80 46.97 36.96 47.13 37.13C47.16 36.65 47.20 36.18 47.25 35.73L47.30 35.14C47.39 34.42 47.48 33.67 47.58 32.89L48.21 27.86C48.24 27.63 48.27 27.40 48.30 27.17C46.70 27.15 45.16 27.23 43.75 27.43C42.09 27.91 40.51 28.63 39.03 29.54L41.69 32.01C42.28 32.56 42.86 33.10 43.44 33.62" fill="#ff9900"/>
  <path d="M59.43 53.46C59.40 53.42 59.37 53.37 59.34 53.33C58.30 51.53 58.37 48.77 59.72 46.96C59.66 46.95 59.61 46.94 59.56 46.93C57.57 46.40 55.69 44.40 55.37 42.16C55.33 42.19 55.29 42.22 55.24 42.25C54.43 42.73 53.43 42.98 52.41 42.98C51.18 42.98 49.93 42.61 48.95 41.87C48.94 41.92 48.93 41.98 48.92 42.04C48.40 44.05 46.43 45.95 44.21 46.27C44.24 46.32 44.27 46.36 44.30 46.41C45.34 48.20 45.27 50.96 43.93 52.77C43.98 52.79 44.03 52.79 44.09 52.81C46.08 53.33 47.95 55.33 48.27 57.57C48.32 57.54 48.36 57.51 48.41 57.48C50.18 56.43 52.90 56.50 54.69 57.86C54.70 57.81 54.71 57.75 54.72 57.70C55.24 55.68 57.22 53.78 59.43 53.46" fill="#ff9900"/>
  <path d="M46.41 67.36C46.33 65.81 46.27 64.35 46.24 62.90C46.24 62.69 46.24 62.46 46.24 62.23C45.89 62.55 45.53 62.86 45.18 63.14L44.73 63.51C44.17 63.97 43.58 64.43 42.96 64.91L38.79 68.18C38.30 68.56 37.81 68.95 37.32 69.33C40.08 70.97 43.28 72.06 46.64 72.58L46.51 69.74C46.48 68.93 46.44 68.14 46.41 67.36" fill="#ff9900"/>
  <path d="M70.94 68.68C70.67 68.33 70.41 67.99 70.14 67.64C69.88 67.30 69.61 66.95 69.35 66.60C68.84 65.94 68.33 65.27 67.83 64.61L64.64 60.45C64.16 59.82 63.71 59.23 63.29 58.69L62.92 58.24C62.12 57.23 61.42 56.36 60.47 56.07C60.33 56.03 60.19 56.01 60.04 56.01C58.85 56.01 57.53 57.19 57.23 58.35C57.01 59.22 57.61 60.02 58.78 61.20C59.78 62.18 60.83 63.14 61.95 64.17C62.52 64.70 63.11 65.24 63.70 65.79L66.74 68.61L67.72 69.52L68.70 70.43L69.26 70.95C70.60 72.19 71.75 73.26 72.74 73.88C73.76 74.52 74.32 74.69 74.59 74.74C74.51 74.06 73.66 72.09 72.25 70.40C71.83 69.85 71.39 69.27 70.94 68.68" fill="#ff9900"/>
  <path d="M78.38 52.31L78.88 52.29C80.69 52.21 82.26 52.14 83.39 51.87C84.55 51.59 85.07 51.31 85.29 51.15C84.76 50.73 82.78 49.95 80.61 49.76C79.91 49.67 79.18 49.57 78.43 49.48C78.01 49.42 77.58 49.37 77.14 49.31C76.72 49.26 76.29 49.20 75.86 49.14C74.97 49.03 74.09 48.92 73.21 48.81L68.24 48.17C67.48 48.07 66.76 47.98 66.09 47.90L65.52 47.84C64.94 47.78 64.40 47.72 63.90 47.72C63.29 47.72 62.75 47.80 62.27 48.06C61.12 48.75 60.90 50.84 61.57 51.99C62.02 52.75 62.97 52.90 64.57 52.90L64.66 52.90C66.04 52.87 67.45 52.81 68.95 52.73C69.74 52.70 70.54 52.66 71.34 52.63L75.79 52.43L77.09 52.37L78.38 52.31" fill="#ff9900"/>
  <path d="M76.56 26.83L76.55 26.83C76.55 26.83 76.55 26.83 76.55 26.83L76.56 26.83" fill="#ff9900"/>
  <path d="M60.54 38.26L60.09 38.62C59.10 39.44 58.24 40.15 57.95 41.11C57.62 42.42 58.92 44.06 60.20 44.39C61.05 44.60 61.85 44.01 63.02 42.82C63.98 41.81 64.93 40.75 65.95 39.62C66.47 39.03 67.01 38.44 67.55 37.84L69.80 35.35L70.69 34.37L71.56 33.40L72.65 32.20C73.87 30.85 74.93 29.68 75.54 28.69C76.17 27.66 76.34 27.08 76.39 26.82C75.72 26.89 73.77 27.76 72.10 29.18C71.22 29.87 70.26 30.62 69.28 31.39C68.93 31.67 68.57 31.95 68.22 32.23C67.86 32.51 67.50 32.79 67.14 33.07C66.83 33.31 66.53 33.55 66.23 33.79L62.27 36.89C61.66 37.37 61.07 37.83 60.54 38.26" fill="#ff9900"/>
  <path d="M53.92 40.00C54.68 39.54 54.82 38.54 54.82 36.86C54.79 35.46 54.72 34.02 54.65 32.50C54.62 31.71 54.58 30.91 54.55 30.10L54.45 27.78L54.39 26.41L54.33 25.06L54.21 22.47C54.13 20.63 54.07 19.05 53.80 17.90C53.53 16.73 53.25 16.20 53.09 15.98C52.67 16.51 51.90 18.52 51.72 20.72C51.56 21.95 51.39 23.29 51.22 24.67C51.16 25.10 51.11 25.53 51.06 25.97C51.00 26.41 50.94 26.86 50.89 27.30C50.85 27.60 50.81 27.89 50.78 28.19L50.15 33.22C50.05 34.00 49.96 34.73 49.88 35.42L49.82 36.00C49.69 37.29 49.57 38.40 50.04 39.29C50.72 40.45 52.78 40.67 53.92 40.00" fill="#ff9900"/>
  <path d="M32.84 31.23C33.10 31.57 33.36 31.90 33.62 32.25C33.89 32.60 34.16 32.96 34.43 33.31C34.89 33.91 35.36 34.52 35.82 35.12L39.01 39.29C39.48 39.91 39.93 40.50 40.36 41.04L40.72 41.49C41.53 42.50 42.23 43.37 43.18 43.67C44.47 43.99 46.08 42.68 46.41 41.39C46.63 40.52 46.03 39.71 44.86 38.53C43.86 37.56 42.81 36.59 41.70 35.56C41.12 35.03 40.53 34.49 39.94 33.94L36.85 31.07L35.87 30.16L34.92 29.29L34.38 28.78C33.04 27.54 31.89 26.47 30.90 25.85C29.89 25.22 29.32 25.04 29.06 25.00C29.13 25.67 29.99 27.64 31.39 29.33C31.85 29.93 32.34 30.57 32.84 31.23" fill="#ff9900"/>
  <path d="M18.25 48.45L18.25 48.45C18.25 48.45 18.25 48.45 18.25 48.45L18.25 48.45" fill="#ff9900"/>
  <path d="M29.93 50.86L35.46 51.57C36.20 51.67 36.90 51.76 37.55 51.84L38.12 51.89C39.40 52.03 40.50 52.14 41.38 51.67C42.52 50.98 42.74 48.89 42.08 47.74C41.62 46.97 40.64 46.82 38.98 46.83C37.60 46.86 36.18 46.93 34.68 47.00C33.90 47.04 33.10 47.07 32.30 47.11L27.77 47.31L26.46 47.37L25.14 47.43L24.76 47.45C22.95 47.52 21.39 47.59 20.26 47.86C19.10 48.14 18.58 48.42 18.36 48.58C18.88 49.00 20.86 49.78 23.04 49.97C23.64 50.05 24.27 50.13 24.91 50.22C25.33 50.27 25.76 50.33 26.19 50.38C26.62 50.44 27.05 50.49 27.49 50.55C28.30 50.65 29.12 50.76 29.93 50.86" fill="#ff9900"/>
  <path d="M27.09 72.90L27.09 72.90L27.09 72.90" fill="#ff9900"/>
  <path d="M43.11 61.48L43.55 61.11C44.55 60.29 45.41 59.58 45.70 58.62C46.03 57.31 44.72 55.68 43.45 55.34C43.33 55.31 43.21 55.30 43.10 55.30C42.36 55.30 41.63 55.89 40.62 56.92C39.67 57.92 38.71 58.99 37.70 60.11C37.17 60.70 36.64 61.30 36.09 61.89L32.74 65.60L31.85 66.58L31.00 67.53C30.99 67.53 30.99 67.54 30.99 67.54C29.77 68.89 28.71 70.05 28.10 71.05C27.48 72.07 27.30 72.65 27.26 72.92C27.93 72.84 29.87 71.98 31.54 70.55C32.00 70.20 32.48 69.82 32.97 69.44C33.31 69.17 33.66 68.89 34.01 68.62C34.37 68.34 34.72 68.06 35.08 67.78C35.78 67.23 36.50 66.67 37.21 66.11L41.37 62.84C41.99 62.36 42.57 61.90 43.11 61.48" fill="#ff9900"/>
  <path d="M51.26 59.36C50.70 59.36 50.15 59.48 49.72 59.74C48.96 60.20 48.82 61.19 48.83 62.87C48.85 64.27 48.92 65.71 48.99 67.23C49.03 68.02 49.06 68.82 49.10 69.63L49.24 72.86L49.30 74.18L49.35 75.49L49.43 77.26C49.51 79.10 49.58 80.68 49.84 81.83C50.12 83.00 50.40 83.53 50.55 83.75C50.97 83.22 51.74 81.21 51.93 79.01C52.07 77.92 52.22 76.74 52.37 75.52C52.42 75.09 52.48 74.66 52.53 74.22C52.59 73.78 52.64 73.34 52.70 72.90C52.76 72.43 52.81 71.96 52.87 71.50L53.50 66.51C53.59 65.73 53.69 65.00 53.77 64.32L53.82 63.74C53.96 62.45 54.07 61.33 53.60 60.44C53.18 59.71 52.21 59.36 51.26 59.36" fill="#ff9900"/>
  <path d="M145.18 121.45C145.11 120.40 144.60 118.95 142.55 118.01C138.64 116.22 118.57 98.75 115.18 92.22C114.85 91.61 114.52 90.97 114.19 90.33C114.01 89.98 113.83 89.63 113.66 89.23C117.67 84.45 121.18 78.40 124.38 70.73C125.32 68.49 125.90 66.11 126.67 63.81C127.56 61.15 128.88 58.67 130.41 56.33C131.14 55.21 132.37 52.66 133.13 50.79C133.37 50.18 132.79 49.56 132.17 49.77C130.40 50.39 125.82 52.79 125.30 53.14C124.20 53.86 122.98 54.61 121.63 54.67C120.69 54.71 119.75 54.60 118.81 54.66C114.57 54.91 110.74 56.02 107.19 58.40C103.57 60.83 98.95 66.12 96.60 69.79C95.83 70.93 94.93 72.00 93.85 73.07C92.64 74.25 91.20 75.46 89.36 76.84C78.75 84.22 53.36 106.02 53.14 106.22C49.63 109.05 31.11 123.58 27.75 125.93C27.18 126.33 26.52 126.81 25.87 127.34C25.13 127.96 24.67 128.89 24.75 129.86C24.84 131.09 25.67 132.09 26.82 132.40C32.87 134.06 51.78 137.01 54.00 136.22C55.04 135.84 55.79 134.91 56.40 134.16C56.51 134.02 56.61 133.89 56.71 133.78C57.98 132.30 59.17 130.74 60.38 129.13C63.40 125.13 66.34 120.97 69.19 116.96L69.67 116.27C70.13 115.62 70.59 114.97 71.05 114.32L72.30 112.54C72.87 111.72 73.47 110.88 74.15 110.28C74.43 110.03 74.69 109.85 74.94 109.72C76.29 112.59 77.72 115.04 79.32 117.22C82.56 121.63 86.87 125.72 92.12 129.39C92.40 129.60 92.70 129.80 92.99 129.99C98.51 133.73 104.00 136.17 109.30 137.23C111.80 137.73 114.27 137.98 116.72 137.98C123.33 137.98 129.70 136.16 135.45 132.60C137.80 131.14 145.46 126.01 145.18 121.45M91.02 107.51C91.54 106.96 92.04 106.43 92.40 105.98L92.45 105.92C96.13 101.77 100.12 97.89 103.97 94.13L104.52 93.60C105.43 92.75 106.26 92.06 107.24 92.14L107.59 92.21C109.35 92.83 108.85 95.03 108.52 96.49L108.42 96.90C106.35 105.18 97.89 119.98 91.30 119.98C91.06 119.98 90.83 119.96 90.60 119.92C88.90 119.63 87.45 118.14 87.00 116.20C86.14 112.72 88.96 109.71 91.02 107.51M82.73 106.17C82.44 106.21 82.15 106.23 81.86 106.23C80.35 106.23 78.98 105.67 77.84 104.58C76.12 102.92 75.93 101.25 76.07 100.14C76.58 96.22 81.65 93.10 86.37 90.49C86.77 90.27 87.12 90.07 87.40 89.91C88.98 88.99 90.62 88.16 92.21 87.35C94.34 86.27 96.55 85.15 98.57 83.84C99.30 83.37 100.25 83.53 100.98 84.26C101.80 85.06 102.03 86.14 101.56 86.95C100.37 88.95 97.18 94.10 93.27 98.62C89.27 103.22 85.73 105.76 82.73 106.17M101.04 121.64C101.26 119.45 102.09 117.64 103.27 115.60C105.02 112.56 107.37 109.18 109.44 106.20C109.96 105.45 110.46 104.72 110.94 104.03L111.34 103.44C111.50 103.21 111.62 103.02 111.73 102.85C112.12 102.24 112.65 101.39 113.67 101.50C113.96 101.52 114.68 101.69 115.05 102.64L115.11 102.82C115.78 105.36 115.11 108.77 114.43 111.76C114.32 112.25 114.22 112.78 114.10 113.33C113.19 117.79 112.05 123.35 108.76 126.49C107.88 127.33 106.40 128.22 104.84 128.22C104.79 128.22 104.74 128.22 104.68 128.22C103.67 128.18 102.79 127.76 102.13 127.01C100.72 125.25 100.93 122.81 101.04 121.64M115.40 123.97C116.10 120.27 117.00 117.05 118.41 113.21L118.50 112.98C118.78 112.33 119.30 111.10 120.54 111.07L120.65 111.06L120.97 111.11L121.15 111.18C122.34 111.71 122.62 113.22 122.86 115.14C122.88 115.32 122.90 115.48 122.92 115.60C122.93 115.66 122.94 115.71 122.94 115.76L123.02 116.58C123.21 118.55 123.40 120.60 123.55 122.64C123.56 122.96 123.57 123.21 123.58 123.48C123.67 125.52 123.76 127.83 122.66 129.79C122.00 130.86 120.96 131.52 119.91 131.54C118.62 131.51 117.47 130.92 116.62 129.86C115.44 128.39 114.99 126.18 115.40 123.97M131.71 127.79C128.84 126.80 127.46 122.37 126.90 119.82C126.62 118.59 127.11 117.32 128.13 116.60C129.18 115.86 130.54 115.83 131.60 116.53C134.27 118.27 137.36 120.62 137.53 123.34C137.58 124.22 137.34 125.52 135.91 126.73C134.77 127.69 133.73 127.99 132.89 127.99C132.44 127.99 132.04 127.90 131.71 127.79" fill="#1c1c19"/>
  <path d="M130.09 118.91C130.03 118.87 129.97 118.85 129.92 118.85C129.84 118.85 129.78 118.88 129.74 118.91C129.58 119.02 129.61 119.15 129.62 119.20C130.32 122.36 131.52 124.74 132.61 125.11C132.76 125.16 133.21 125.32 134.12 124.55C134.77 124.01 134.75 123.65 134.74 123.51C134.70 122.90 134.05 121.49 130.09 118.91" fill="#1c1c19"/>
  <path d="M93.46 89.88C91.91 90.67 90.30 91.49 88.79 92.36C88.49 92.54 88.13 92.74 87.71 92.97C85.17 94.38 79.21 97.68 78.85 100.50C78.79 100.94 78.82 101.62 79.77 102.53C80.51 103.24 81.33 103.51 82.36 103.37C86.65 102.78 93.03 95.29 97.91 87.53C96.44 88.37 94.93 89.13 93.46 89.88" fill="#1c1c19"/>
  <path d="M91.06 117.13C94.53 117.72 103.07 106.53 105.67 96.41C101.77 100.20 98.08 103.81 94.55 107.78C94.12 108.32 93.60 108.87 93.05 109.46C91.34 111.28 89.22 113.54 89.71 115.54C89.91 116.35 90.48 117.03 91.06 117.13" fill="#1c1c19"/>
  <path d="M104.79 125.39C105.38 125.41 106.24 125.01 106.83 124.44C109.49 121.90 110.53 116.83 111.37 112.75C111.48 112.20 111.59 111.66 111.70 111.14C111.96 110.01 112.34 108.32 112.51 106.69C112.25 107.06 111.99 107.44 111.72 107.83C109.68 110.76 107.37 114.09 105.68 117.03C104.66 118.80 103.99 120.24 103.82 121.91C103.71 123.11 103.68 124.46 104.26 125.18C104.37 125.30 104.54 125.38 104.79 125.39" fill="#1c1c19"/>
  <path d="M119.91 128.71C119.91 128.70 120.11 128.58 120.25 128.34C120.94 127.14 120.86 125.34 120.79 123.59C120.78 123.32 120.77 123.05 120.76 122.79C120.62 120.84 120.42 118.81 120.24 116.85L120.21 116.53C119.31 119.25 118.67 121.73 118.15 124.50C117.89 125.88 118.13 127.26 118.79 128.08C119.12 128.49 119.50 128.70 119.91 128.71" fill="#1c1c19"/>
  <path d="M25.90 69.67C24.75 71.55 24.41 72.93 24.82 74.01C25.08 74.70 25.63 75.20 26.38 75.42L26.39 75.42C26.62 75.50 26.87 75.53 27.13 75.53C29.21 75.53 32.19 73.42 33.17 72.59C33.79 72.11 34.46 71.58 35.15 71.04C35.40 71.20 35.64 71.37 35.90 71.53C39.09 73.45 42.83 74.68 46.75 75.22L46.85 77.38C46.93 79.34 47.00 81.04 47.32 82.43C47.83 84.58 48.55 85.80 49.59 86.27C49.88 86.40 50.19 86.47 50.50 86.47C50.89 86.47 51.29 86.36 51.68 86.15L51.69 86.15C53.59 85.17 54.38 80.74 54.50 79.29C54.65 78.08 54.82 76.73 55.00 75.34C58.21 75.00 61.37 74.19 64.27 72.91C65.01 72.59 65.72 72.23 66.40 71.85L67.51 72.88C68.95 74.21 70.18 75.36 71.38 76.11C72.74 76.96 73.83 77.37 74.74 77.37C75.08 77.37 75.38 77.32 75.67 77.21C76.35 76.94 76.84 76.38 77.06 75.63L77.06 75.62C77.73 73.57 75.19 69.87 74.27 68.76C73.80 68.15 73.30 67.49 72.79 66.82C75.23 64.08 76.92 60.81 77.70 57.14C77.86 56.40 77.98 55.67 78.09 54.94L78.99 54.90C80.93 54.82 82.61 54.75 83.98 54.42C86.11 53.91 87.31 53.18 87.78 52.12C88.07 51.46 88.03 50.71 87.66 50.01L87.65 50.00C86.69 48.08 82.31 47.28 80.88 47.15C80.05 47.05 79.15 46.93 78.21 46.81C77.63 42.51 76.00 38.64 73.32 35.34L74.56 33.97C75.87 32.52 77.00 31.27 77.74 30.06C78.89 28.18 79.23 26.80 78.82 25.72C78.57 25.04 78.01 24.54 77.27 24.31L77.26 24.31C75.24 23.63 71.58 26.21 70.48 27.14C69.43 27.96 68.26 28.88 67.06 29.82C63.93 27.83 60.46 26.45 56.94 25.60L56.80 22.36C56.71 20.39 56.64 18.69 56.32 17.30C55.82 15.15 55.09 13.93 54.05 13.46C53.39 13.16 52.65 13.20 51.97 13.58L51.96 13.59C50.06 14.56 49.27 18.99 49.14 20.44C48.98 21.69 48.81 23.09 48.63 24.53C46.77 24.50 44.97 24.61 43.30 24.85L43.12 24.88C40.97 25.50 38.93 26.47 37.05 27.71L36.12 26.85C34.69 25.52 33.46 24.37 32.26 23.62C30.40 22.46 29.04 22.11 27.97 22.53C27.30 22.79 26.80 23.35 26.58 24.10L26.58 24.12C25.92 26.17 28.45 29.87 29.38 30.98C29.91 31.68 30.49 32.44 31.09 33.22C28.51 36.50 26.60 40.46 25.62 44.78L24.65 44.83C22.71 44.91 21.03 44.99 19.66 45.31C17.54 45.82 16.33 46.55 15.86 47.61C15.57 48.28 15.61 49.03 15.98 49.72L15.99 49.73C16.95 51.65 21.33 52.45 22.76 52.58C23.44 52.67 24.17 52.76 24.93 52.86C25.20 57.61 26.71 61.95 29.31 65.51L29.09 65.76C27.78 67.21 26.64 68.46 25.90 69.67M18.25 48.45C18.25 48.45 18.25 48.45 18.25 48.45L18.25 48.45L18.25 48.45M24.76 47.45L25.14 47.43L26.46 47.37L27.77 47.31L32.30 47.11C33.10 47.07 33.90 47.04 34.68 47.00C36.18 46.93 37.60 46.86 38.98 46.83C40.64 46.82 41.62 46.97 42.07 47.74C42.74 48.89 42.52 50.98 41.38 51.67C40.50 52.14 39.40 52.03 38.12 51.89L37.55 51.83C36.90 51.76 36.20 51.67 35.46 51.57L29.93 50.86C29.12 50.76 28.30 50.65 27.49 50.55C27.05 50.49 26.62 50.44 26.19 50.38C25.76 50.33 25.33 50.27 24.91 50.22C24.27 50.13 23.64 50.05 23.04 49.97C20.86 49.78 18.88 49.00 18.35 48.58C18.57 48.42 19.10 48.14 20.26 47.86C21.39 47.59 22.95 47.52 24.76 47.45M30.90 25.85C31.89 26.47 33.04 27.54 34.38 28.78L34.92 29.29L35.87 30.16L36.85 31.07L39.94 33.94C40.53 34.49 41.12 35.03 41.70 35.56C42.81 36.59 43.86 37.56 44.86 38.53C46.03 39.71 46.63 40.52 46.41 41.39C46.08 42.67 44.47 43.99 43.18 43.67C42.23 43.37 41.53 42.50 40.72 41.49L40.36 41.04C39.93 40.50 39.48 39.91 39.01 39.29L35.82 35.12C35.36 34.52 34.89 33.91 34.43 33.31C34.16 32.96 33.89 32.60 33.62 32.25C33.36 31.90 33.10 31.57 32.84 31.22C32.34 30.57 31.85 29.93 31.39 29.33C29.99 27.64 29.13 25.67 29.06 25.00C29.32 25.04 29.89 25.22 30.90 25.85M48.30 27.17C48.27 27.40 48.24 27.63 48.21 27.86L47.58 32.89C47.48 33.67 47.39 34.42 47.30 35.14L47.25 35.72C47.20 36.18 47.16 36.65 47.13 37.13C46.97 36.96 46.81 36.80 46.67 36.66C45.63 35.65 44.57 34.66 43.44 33.62C42.86 33.10 42.28 32.56 41.70 32.01L39.03 29.54C40.51 28.63 42.09 27.91 43.75 27.43C45.16 27.23 46.70 27.15 48.30 27.17M51.22 24.67C51.39 23.29 51.56 21.95 51.71 20.72C51.90 18.52 52.67 16.51 53.09 15.98C53.25 16.20 53.53 16.73 53.80 17.90C54.07 19.05 54.13 20.63 54.21 22.47L54.33 25.06L54.39 26.41L54.45 27.78L54.55 30.10C54.58 30.91 54.62 31.71 54.65 32.50C54.72 34.02 54.79 35.46 54.82 36.86C54.82 38.54 54.68 39.54 53.92 40.00C52.78 40.67 50.72 40.45 50.04 39.29C49.57 38.40 49.69 37.29 49.82 36.00L49.88 35.42C49.96 34.73 50.05 34.00 50.15 33.22L50.78 28.19C50.81 27.89 50.85 27.60 50.89 27.30C50.94 26.86 51.00 26.41 51.05 25.97C51.11 25.53 51.16 25.10 51.22 24.67M64.85 31.56C64.78 31.61 64.71 31.66 64.64 31.72L60.69 34.82C60.07 35.31 59.48 35.77 58.91 36.22L58.46 36.59C58.11 36.88 57.75 37.18 57.40 37.51C57.40 37.27 57.40 37.04 57.40 36.84C57.38 35.38 57.31 33.92 57.24 32.38C57.20 31.59 57.16 30.80 57.13 29.99L57.06 28.37C59.75 29.09 62.41 30.13 64.85 31.56M69.28 31.39C70.26 30.62 71.22 29.87 72.10 29.18C73.77 27.76 75.72 26.89 76.38 26.81C76.34 27.08 76.17 27.66 75.54 28.68C74.93 29.68 73.87 30.85 72.65 32.20L71.56 33.40L70.69 34.37L69.80 35.35L67.55 37.84C67.01 38.44 66.47 39.03 65.95 39.62C64.93 40.75 63.98 41.81 63.02 42.82C61.85 44.01 61.05 44.60 60.20 44.39C58.92 44.05 57.62 42.42 57.95 41.11C58.24 40.15 59.10 39.44 60.09 38.62L60.54 38.26C61.07 37.83 61.66 37.37 62.27 36.89L66.23 33.79C66.53 33.55 66.83 33.31 67.14 33.07C67.50 32.79 67.86 32.51 68.22 32.23C68.57 31.95 68.93 31.67 69.28 31.39M76.56 26.83L76.55 26.83C76.55 26.83 76.55 26.83 76.55 26.83L76.56 26.83M80.61 49.76C82.78 49.95 84.76 50.73 85.29 51.15C85.07 51.31 84.55 51.59 83.39 51.87C82.26 52.14 80.69 52.21 78.88 52.29L78.38 52.31L77.09 52.37L75.79 52.43L71.34 52.63C70.54 52.66 69.74 52.70 68.95 52.73C67.45 52.81 66.04 52.87 64.66 52.90L64.57 52.90C62.97 52.90 62.01 52.75 61.57 51.99C60.90 50.84 61.12 48.75 62.26 48.06C62.74 47.80 63.29 47.72 63.90 47.72C64.40 47.72 64.94 47.78 65.52 47.84L66.09 47.90C66.76 47.98 67.48 48.07 68.24 48.17L73.21 48.81C74.08 48.92 74.97 49.03 75.85 49.14C76.29 49.20 76.72 49.26 77.14 49.31C77.58 49.37 78.01 49.42 78.43 49.48C79.18 49.57 79.91 49.67 80.61 49.76M75.17 56.59C74.52 59.63 73.16 62.38 71.18 64.71C70.74 64.15 70.31 63.58 69.87 63.01L66.68 58.84C66.20 58.21 65.75 57.62 65.30 57.04L64.93 56.59C64.65 56.24 64.35 55.87 64.03 55.51C64.17 55.52 64.31 55.52 64.45 55.52C64.53 55.52 64.61 55.52 64.69 55.52C66.12 55.49 67.56 55.42 69.08 55.35C69.86 55.31 70.65 55.27 71.45 55.24L75.46 55.06C75.38 55.57 75.28 56.08 75.17 56.59M72.74 73.88C71.75 73.26 70.60 72.19 69.26 70.95L68.70 70.43L67.72 69.52L66.74 68.61L63.70 65.79C63.11 65.24 62.52 64.70 61.95 64.17C60.83 63.14 59.78 62.18 58.78 61.20C57.61 60.02 57.01 59.22 57.23 58.35C57.53 57.19 58.85 56.01 60.04 56.01C60.19 56.01 60.33 56.03 60.47 56.07C61.42 56.36 62.12 57.23 62.92 58.24L63.29 58.69C63.71 59.23 64.16 59.82 64.64 60.45L67.83 64.61C68.33 65.27 68.84 65.94 69.35 66.60C69.61 66.95 69.88 67.30 70.14 67.64C70.41 67.99 70.67 68.33 70.94 68.68C71.39 69.27 71.83 69.85 72.25 70.40C73.66 72.09 74.51 74.06 74.59 74.74C74.32 74.69 73.75 74.52 72.74 73.88M63.24 70.51C60.75 71.61 58.07 72.32 55.33 72.68C55.37 72.39 55.40 72.11 55.44 71.82L56.06 66.84C56.16 66.05 56.26 65.31 56.34 64.59L56.40 64.01C56.44 63.55 56.49 63.08 56.51 62.60C56.67 62.77 56.83 62.93 56.98 63.08C58.01 64.09 59.08 65.07 60.20 66.11C60.78 66.64 61.36 67.17 61.95 67.72L64.38 69.97C64.01 70.16 63.63 70.34 63.24 70.51M52.37 75.52C52.21 76.74 52.07 77.92 51.93 79.01C51.74 81.21 50.97 83.22 50.55 83.75C50.40 83.53 50.12 83.00 49.84 81.83C49.58 80.68 49.51 79.10 49.43 77.26L49.35 75.48L49.30 74.18L49.24 72.86L49.10 69.63C49.06 68.82 49.03 68.02 48.99 67.23C48.92 65.71 48.85 64.27 48.83 62.87C48.82 61.19 48.96 60.20 49.72 59.73C50.15 59.48 50.70 59.36 51.26 59.36C52.21 59.36 53.18 59.71 53.60 60.44C54.07 61.33 53.96 62.45 53.82 63.74L53.77 64.31C53.69 65.00 53.59 65.73 53.50 66.51L52.87 71.50C52.81 71.96 52.75 72.43 52.70 72.90C52.64 73.34 52.59 73.78 52.53 74.22C52.48 74.66 52.42 75.09 52.37 75.52M37.32 69.33C37.81 68.95 38.30 68.56 38.79 68.18L42.96 64.91C43.58 64.43 44.17 63.96 44.73 63.51L45.18 63.14C45.53 62.86 45.89 62.55 46.24 62.23C46.24 62.46 46.24 62.69 46.24 62.90C46.27 64.35 46.33 65.81 46.41 67.36C46.44 68.14 46.48 68.93 46.51 69.74L46.64 72.58C43.28 72.06 40.08 70.97 37.32 69.33M44.30 46.41C44.27 46.36 44.24 46.32 44.21 46.27C46.43 45.95 48.40 44.05 48.92 42.03C48.93 41.98 48.94 41.92 48.95 41.87C49.93 42.61 51.18 42.98 52.41 42.98C53.43 42.98 54.43 42.73 55.24 42.25C55.29 42.22 55.33 42.19 55.37 42.16C55.69 44.40 57.57 46.40 59.56 46.93C59.61 46.94 59.66 46.95 59.72 46.96C58.37 48.77 58.30 51.53 59.34 53.33C59.37 53.37 59.40 53.42 59.43 53.46C57.22 53.78 55.24 55.68 54.72 57.70C54.71 57.75 54.70 57.80 54.69 57.86C52.90 56.50 50.18 56.43 48.41 57.48C48.36 57.51 48.32 57.54 48.27 57.57C47.95 55.33 46.08 53.33 44.09 52.81C44.03 52.79 43.98 52.79 43.93 52.77C45.27 50.96 45.34 48.20 44.30 46.41M73.53 46.21L68.57 45.57C67.80 45.47 67.07 45.38 66.36 45.29L65.79 45.23C65.34 45.19 64.87 45.14 64.40 45.12C64.57 44.95 64.72 44.79 64.87 44.65C65.87 43.60 66.83 42.52 67.86 41.38C68.38 40.80 68.91 40.21 69.46 39.61L71.55 37.30C73.67 39.99 75.02 43.06 75.58 46.47C74.90 46.38 74.21 46.29 73.53 46.21M33.77 36.72L36.96 40.89C37.44 41.52 37.90 42.12 38.35 42.69L38.71 43.14C38.99 43.50 39.29 43.86 39.61 44.22C39.38 44.21 39.16 44.21 38.95 44.21C37.52 44.24 36.08 44.31 34.56 44.38C33.78 44.42 32.99 44.46 32.19 44.49L28.31 44.66C29.19 41.21 30.71 38.04 32.72 35.35C33.07 35.81 33.42 36.27 33.77 36.72M29.61 53.46L35.14 54.17C35.88 54.27 36.59 54.36 37.28 54.44L37.85 54.50C38.30 54.54 38.77 54.58 39.25 54.61C39.08 54.77 38.92 54.94 38.77 55.08C37.78 56.13 36.81 57.21 35.78 58.35C35.26 58.93 34.73 59.52 34.19 60.12L31.10 63.53C29.07 60.57 27.85 57.05 27.55 53.19C28.23 53.28 28.92 53.37 29.61 53.46M31.00 67.53L31.85 66.58L32.74 65.60L36.09 61.89C36.63 61.29 37.17 60.70 37.70 60.11C38.71 58.99 39.67 57.92 40.62 56.92C41.63 55.89 42.36 55.30 43.10 55.30C43.21 55.30 43.33 55.31 43.45 55.34C44.72 55.68 46.03 57.31 45.70 58.62C45.41 59.58 44.55 60.29 43.55 61.11L43.11 61.48C42.57 61.90 41.99 62.36 41.37 62.84L37.21 66.11C36.50 66.67 35.78 67.23 35.08 67.78C34.72 68.06 34.36 68.34 34.01 68.62C33.66 68.89 33.31 69.17 32.97 69.44C32.48 69.82 32.00 70.19 31.54 70.55C29.87 71.98 27.93 72.84 27.26 72.92C27.30 72.65 27.48 72.07 28.10 71.05C28.71 70.05 29.76 68.89 30.98 67.54C30.99 67.54 30.99 67.53 31.00 67.53M27.09 72.90L27.09 72.90L27.09 72.90L27.09 72.90" fill="#1c1c19"/>
</svg>
